<?xml version="1.0" encoding="utf-8"?>
<!-- Generator: Adobe Illustrator 16.0.0, SVG Export Plug-In . SVG Version: 6.00 Build 0)  -->
<!DOCTYPE svg PUBLIC "-//W3C//DTD SVG 1.1//EN" "http://www.w3.org/Graphics/SVG/1.1/DTD/svg11.dtd">
<svg version="1.1" id="Capa_1" xmlns="http://www.w3.org/2000/svg" xmlns:xlink="http://www.w3.org/1999/xlink" x="0px" y="0px"
	 width="250px" height="250px" viewBox="0 0 250 250" enable-background="new 0 0 250 250" xml:space="preserve">
<g>
	<path fill="#FFDA22" d="M144.672,134.938l27.141,1.781c1.672-2.953,3.25-6.031,4.641-9.25c1.391-3.203,2.531-6.453,3.547-9.719
		l-19.891-18.516c0.672-5.296,0.766-10.578,0.281-15.781l20.391-17.891c-1.813-6.672-4.375-13.11-7.625-19.204L146,47.343
		c-3.203-4.141-6.891-7.922-11.016-11.297l1.766-27.141c-2.954-1.688-6.048-3.25-9.25-4.641c-3.204-1.375-6.454-2.531-9.72-3.531
		l-18.5,19.922c-5.297-0.672-10.578-0.766-15.781-0.25L65.563,0c-6.672,1.828-13.11,4.391-19.204,7.641l0.984,27.11
		c-4.14,3.203-7.921,6.89-11.296,11.015L8.906,44c-1.688,2.969-3.25,6.031-4.641,9.25c-1.375,3.203-2.531,6.453-3.531,9.719
		l19.922,18.516c-0.672,5.297-0.766,10.578-0.25,15.781L0,115.156c1.828,6.656,4.391,13.109,7.641,19.219l27.11-1
		c3.203,4.141,6.906,7.922,11.031,11.297L44,171.813c2.969,1.672,6.031,3.25,9.25,4.641c3.203,1.391,6.453,2.531,9.719,3.547
		l18.515-19.891c5.297,0.672,10.579,0.766,15.781,0.25l17.891,20.422c6.672-1.813,13.109-4.375,19.203-7.625L133.375,146
		C137.516,142.766,141.297,139.063,144.672,134.938z M71.796,133.406c-23.781-10.25-34.734-37.829-24.484-61.61
		c10.25-23.765,37.828-34.734,61.609-24.484c23.766,10.25,34.719,37.828,24.485,61.609
		C123.156,132.703,95.578,143.641,71.796,133.406z"/>
	<circle fill="#FF3000" cx="90.359" cy="90.359" r="23.438"/>
	<path fill="#FF3000" d="M249.672,201.328l0.328-6.016l-0.328-6.031l-14.953-5.328l-6.469-2.281l2.938-6.219l6.797-14.281
		c-2.5-3.125-5.375-6.016-8.516-8.547l-14.313,6.828l-6.188,2.938l-2.281-6.469l-5.313-14.953l-6.063-0.344l-6.047,0.328
		l-5.313,14.953l-2.281,6.469l-6.219-2.938l-14.281-6.797c-3.141,2.5-6.016,5.391-8.547,8.516l6.813,14.313l2.953,6.203
		l-6.469,2.297l-14.953,5.313l-0.344,6.031l0.328,6.016l14.953,5.313l6.469,2.297l-2.938,6.203l-6.797,14.313
		c2.5,3.125,5.375,5.984,8.516,8.516l14.313-6.797l6.203-2.938l2.297,6.469l5.313,14.953l6.031,0.344l6.047-0.328l5.313-14.953
		l2.281-6.469l6.219,2.938l14.281,6.797c3.141-2.5,6.016-5.375,8.547-8.516l-6.828-14.313l-2.938-6.188l6.469-2.281L249.672,201.328
		z M195.313,207.031c-6.469,0-11.719-5.25-11.719-11.719s5.25-11.719,11.719-11.719s11.719,5.25,11.719,11.719
		S201.781,207.031,195.313,207.031z"/>
</g>
</svg>
