<?xml version="1.0" encoding="utf-8"?>
<!-- Generator: Adobe Illustrator 16.0.0, SVG Export Plug-In . SVG Version: 6.00 Build 0)  -->
<!DOCTYPE svg PUBLIC "-//W3C//DTD SVG 1.1//EN" "http://www.w3.org/Graphics/SVG/1.1/DTD/svg11.dtd">
<svg version="1.1" id="Isolation_Mode" xmlns="http://www.w3.org/2000/svg" xmlns:xlink="http://www.w3.org/1999/xlink" x="0px"
	 y="0px" width="1122px" height="1122px" viewBox="0 0 1122 1122" style="enable-background:new 0 0 1122 1122;"
	 xml:space="preserve">
<style type="text/css">
<![CDATA[
	.st0{fill:#E2FFB8;}
]]>
</style>
<g>
	<g>
		<path class="st0" d="M523.24,559.605c-0.621-0.651,0.167-1.639,0.944-1.224c9.203,4.916,13.968,15.905,17.856,25.062
			c2.042,4.808,3.724,9.649,5.036,14.566c3.333-5.994,6.455-21.894-1.25-36.158c-9.229-17.084-39.037-32.555-39.037-32.555
			s-2.865,34.405,5.826,50.495c7.667,14.192,24.324,20.827,30.614,20.863C539.549,585.582,534.027,570.922,523.24,559.605z"/>
	</g>
	<g>
		<path class="st0" d="M569.245,556.481c-13.12,12.637-15.622,30.519-14.383,38.843c2.309-4.25,4.802-8.369,7.498-12.246
			c7.986-11.488,18.997-18.723,31.397-24.768c0.861-0.42,1.598,0.796,0.758,1.297c-12.598,7.52-22.928,15.944-30.332,28.811
			c-2.253,3.916-4.302,7.933-6.247,11.999c6.548,2.394,28.031,1.144,41.882-12.197c15.376-14.813,24.399-54.097,24.399-54.097
			S585.573,540.753,569.245,556.481z"/>
	</g>
</g>
</svg>
