<?xml version="1.0" encoding="utf-8"?>
<!-- Generator: Adobe Illustrator 16.0.0, SVG Export Plug-In . SVG Version: 6.00 Build 0)  -->
<!DOCTYPE svg PUBLIC "-//W3C//DTD SVG 1.1//EN" "http://www.w3.org/Graphics/SVG/1.1/DTD/svg11.dtd">
<svg version="1.1" id="Object" xmlns="http://www.w3.org/2000/svg" xmlns:xlink="http://www.w3.org/1999/xlink" x="0px" y="0px"
	 width="200px" height="185.031px" viewBox="0 0 200 185.031" style="enable-background:new 0 0 200 185.031;" xml:space="preserve"
	>
<style type="text/css">
<![CDATA[
	.st0{fill:#FFFFFF;}
]]>
</style>
<g>
	<g>
		<path class="st0" d="M200,92.393H0c0,33.339,23.006,62.148,56.374,75.796H54.21v16.843h91.58v-16.843h-2.164
			C176.994,154.541,200,125.731,200,92.393z"/>
	</g>
	<g>
		<g>
			<g>
				<path class="st0" d="M32.473,0.055c0,0-1.295,38.2,15.449,54.945c13.886,13.885,31.93,10.891,40.223,6.938L59.099,32.892
					c-1.716-1.716-1.714-4.496,0-6.21c1.714-1.715,4.495-1.716,6.21,0l29.085,29.085c4.062-8.184,7.339-25.948-6.976-40.263
					C70.157-1.757,32.473,0.055,32.473,0.055z"/>
			</g>
			<g>
				<path class="st0" d="M167.527,0.055c0,0,1.295,38.2-15.449,54.945c-13.886,13.885-31.93,10.891-40.223,6.938l29.046-29.046
					c1.716-1.716,1.714-4.496,0-6.21c-1.714-1.715-4.495-1.716-6.21,0l-29.085,29.085c-4.062-8.184-7.339-25.948,6.976-40.263
					C129.843-1.757,167.527,0.055,167.527,0.055z"/>
			</g>
		</g>
		<g>
			<path class="st0" d="M100,96.972c-2.528,0-4.578-2.051-4.578-4.579V62.401c0-2.528,2.05-4.579,4.578-4.579
				s4.578,2.051,4.578,4.579v29.991C104.578,94.921,102.528,96.972,100,96.972z"/>
		</g>
	</g>
</g>
</svg>
