<?xml version="1.0" encoding="utf-8"?>
<!-- Generator: Adobe Illustrator 16.0.0, SVG Export Plug-In . SVG Version: 6.00 Build 0)  -->
<!DOCTYPE svg PUBLIC "-//W3C//DTD SVG 1.1//EN" "http://www.w3.org/Graphics/SVG/1.1/DTD/svg11.dtd">
<svg version="1.1" id="Object" xmlns="http://www.w3.org/2000/svg" xmlns:xlink="http://www.w3.org/1999/xlink" x="0px" y="0px"
	 width="132.844px" height="200px" viewBox="0 0 132.844 200" style="enable-background:new 0 0 132.844 200;" xml:space="preserve"
	>
<style type="text/css">
<![CDATA[
	.st0{fill:#FFFFFF;}
]]>
</style>
<g>
	<path class="st0" d="M66.422,0C66.422,0,0,62.067,0,118.386c0,32.955,17.642,55.271,35.264,68.129l1.41-42.894
		c0-5.426-18.302-7.145-18.302-12.597V87.163c0-2.861,2.319-5.18,5.18-5.18c2.861,0,5.18,2.319,5.18,5.18v29.039
		c0,1.456,1.05,2.784,2.696,2.896c1.753,0.119,3.173-1.448,3.173-3.206V87.163c0-2.861,2.319-5.18,5.18-5.18l0,0
		c2.861,0,5.18,2.319,5.18,5.18v28.729c0,1.757,1.42,3.325,3.174,3.206c1.646-0.112,2.696-1.44,2.696-2.896V87.163
		c0-2.861,2.319-5.18,5.18-5.18c2.861,0,5.18,2.319,5.18,5.18v43.862c0,5.452-18.302,7.146-18.302,12.597
		c0,5.447,0.92,31.812,1.535,48.797c9.117,5.113,17.346,7.582,22,7.582c4.633,0,12.812-2.282,21.879-7.169l1.599-48.009
		c0-2.21-1.429-4.102-3.491-4.894c-10.484-4.022-18.04-15.123-18.04-28.162c0-16.422,9.909-29.783,24.638-29.783
		s24.638,13.361,24.638,29.783c0,13.039-7.556,24.139-18.04,28.162c-2.063,0.792-3.491,2.684-3.491,4.894l1.407,42.261
		c17.643-12.532,35.324-34.687,35.324-68.697C132.844,60.329,66.422,0,66.422,0z"/>
</g>
</svg>
