<?xml version="1.0" encoding="utf-8"?>
<!-- Generator: Adobe Illustrator 16.0.0, SVG Export Plug-In . SVG Version: 6.00 Build 0)  -->
<!DOCTYPE svg PUBLIC "-//W3C//DTD SVG 1.1//EN" "http://www.w3.org/Graphics/SVG/1.1/DTD/svg11.dtd">
<svg version="1.1" id="Object" xmlns="http://www.w3.org/2000/svg" xmlns:xlink="http://www.w3.org/1999/xlink" x="0px" y="0px"
	 width="131.395px" height="128.81px" viewBox="0 0 131.395 128.81" style="enable-background:new 0 0 131.395 128.81;"
	 xml:space="preserve">
<style type="text/css">
<![CDATA[
	.st0{fill:#FCFCFC;}
]]>
</style>
<g>
	<path class="st0" d="M59.425,55.912l2.021,1.48l1.147-2.229c1.007-1.959,1.519-4.063,1.519-6.252
		c0-7.548-6.142-13.689-13.69-13.689c-0.445,0-0.904,0.023-1.362,0.068l-1.929,0.192v14.676l1.542,0.449
		C52.531,51.731,56.148,53.517,59.425,55.912z M51.413,39.558c4.723,0.497,8.415,4.503,8.415,9.354c0,0.667-0.069,1.322-0.206,1.963
		c-2.584-1.621-5.331-2.924-8.209-3.895V39.558z"/>
	<path class="st0" d="M58.031,120.717h-6.307c1.625-0.564,3.197-1.24,4.717-2.006c-0.85-1.127-1.67-2.306-2.456-3.545
		c-4.546,2.193-9.642,3.424-15.019,3.424c-19.125,0-34.684-15.559-34.684-34.684c0-15.325,10.271-29.018,24.978-33.298l1.543-0.449
		V18.201h16.327V30.42l2.626-0.15c0.221-0.014,0.44-0.031,0.665-0.031c10.297,0,18.674,8.377,18.674,18.674
		c0,2.647-0.566,5.223-1.633,7.603c1.536-0.236,3.113-0.335,4.716-0.29c0.788-2.338,1.199-4.8,1.199-7.313
		c0-12.326-9.764-22.414-21.965-22.936v-7.775h4.863v-4.283h-4.863H48.02V5.472C48.02,2.449,45.569,0,42.547,0h-7.16
		c-3.022,0-5.472,2.449-5.472,5.472v8.446h-3.395h-4.863v4.283h4.863V46.98C10.826,52.274,0,67.229,0,83.906
		c0,17.02,10.971,31.514,26.209,36.811H15.964V125H61.97v-0.15C60.607,123.604,59.293,122.221,58.031,120.717z"/>
	<path class="st0" d="M9.993,83.906c0,16.002,12.972,28.975,28.974,28.975c4.358,0,8.488-0.969,12.195-2.691
		c-0.353-0.697-0.698-1.402-1.031-2.123c-4.289-9.299-5.483-22.203-2.46-32.635H11.255C10.437,78.112,9.993,80.957,9.993,83.906z"/>
</g>
<g id="사과_x28_복사_x29_">
	<g>
		<g>
			<path class="st0" d="M104.814,52.378c-7.919,7.919-16.889,5.375-18.554,3.71c-1.664-1.664-3.971-10.871,3.711-18.553
				s23.568-8.726,23.568-8.726S112.732,44.459,104.814,52.378z"/>
		</g>
	</g>
	<g>
		<path class="st0" d="M53.821,106.543c8.282,17.954,23.678,27.683,36.898,19.112c13.222,8.57,28.617-1.158,36.899-19.112
			c4.634-10.047,5.316-24.736,0.281-34.762c-2.927-5.826-7.535-9.561-12.36-11.217c-7.596-2.609-17.146-0.806-24.82,4.967
			c-7.674-5.772-17.225-7.576-24.819-4.967c-4.826,1.656-9.434,5.391-12.36,11.217C48.504,81.807,49.187,96.496,53.821,106.543z
			 M107.254,113.367c6.153-5.987,10.127-13.283,11.188-20.542c1.172-8.012-1.35-16.124-6.579-21.17
			c-1.069-1.032-1.1-2.735-0.067-3.804c1.031-1.07,2.735-1.1,3.805-0.068c6.455,6.229,9.585,16.123,8.166,25.82
			c-1.232,8.424-5.765,16.813-12.761,23.62c-0.522,0.509-1.199,0.763-1.876,0.763c-0.701,0-1.401-0.273-1.929-0.814
			C106.165,116.106,106.188,114.402,107.254,113.367z"/>
	</g>
</g>
</svg>
