<svg id="beef" enable-background="new 0 0 300 300" height="512" viewBox="0 0 300 300" width="512" xmlns="http://www.w3.org/2000/svg"><path d="m242.027 112c-.9 0-1.688.352-2.357.854-3.987-5.36-10.348-8.854-17.526-8.854h-67.554c.891-2.507 1.409-5.191 1.409-8v-4c0-2.209-1.789-4-4-4h-16.837c2.978-3.674 4.838-8.287 4.838-13.373v-6.627c0-2.209-1.789-4-4-4s-4 1.791-4 4v6.627c0 7.373-6 13.373-13.375 13.373h-34.625-6.625c-7.375 0-13.375-6-13.375-13.373v-6.627c0-2.209-1.789-4-4-4s-4 1.791-4 4v6.627c0 5.086 1.86 9.699 4.837 13.373h-16.837c-2.211 0-4 1.791-4 4v4c0 11.871 8.664 21.756 20 23.666v14.334c0 18.266 12.959 33.555 30.163 37.178l13.935 61.703c.414 1.824 2.031 3.119 3.902 3.119h4c11.027 0 20-8.973 20-20v-20h33.398 25.203 14.691l14.992 37.486c.609 1.518 2.078 2.514 3.715 2.514 11.027 0 20-8.973 20-20v-32.402-39.195-18.547c0-1.987-.29-3.905-.79-5.736 4.937.594 8.79 4.76 8.79 9.853v26.027c0 2.209 1.789 4 4 4s4-1.791 4-4v-26.027c.001-9.911-8.061-17.973-17.972-17.973zm-6.027 68c-8.824 0-16-7.178-16-16s7.176-16 16-16zm-88.405-65.813c.013.007.021.019.034.026 7.633 3.721 12.371 11.303 12.371 19.787 0 12.131-9.871 22-22 22-2.77 0-5.475-.562-8.018-1.559 3.79-5.91 6.018-12.914 6.018-20.441v-14.334c4.389-.739 8.355-2.697 11.595-5.479zm-28.103-18.187c-1.777 6.893-8.051 12-15.492 12s-13.715-5.107-15.492-12zm-51.492 38v-18c0-2.209-1.789-4-4-4-8.824 0-16-7.178-16-16h32.361c1.913 11.333 11.77 20 23.639 20s21.726-8.667 23.639-20h20.361c0 8.822-7.176 16-16 16-2.211 0-4 1.791-4 4v18c0 16.543-13.457 30-30 30s-30-13.457-30-30zm100.219 54c-.145-.664-.219-1.332-.219-2 0-5.514 4.484-10 10-10s10 4.486 10 10c0 .668-.074 1.336-.219 2zm67.781 28c0 5.727-4.031 10.527-9.406 11.717l-14.879-37.203c-.61-1.518-2.078-2.514-3.715-2.514h-12.229c.078-.667.229-1.327.229-2 0-9.926-8.074-18-18-18s-18 8.074-18 18c0 .673.151 1.333.229 2h-32.229c-2.211 0-4 1.791-4 4v24c0 6.617-5.383 12-12 12h-.801l-12.654-56.028c10.239-.146 19.516-4.341 26.273-11.079 4.094 2.007 8.579 3.107 13.182 3.107 16.543 0 30-13.457 30-30 0-8.555-3.55-16.423-9.599-22h63.743c7.641 0 13.855 6.215 13.855 13.855v14.145c-13.234 0-24 10.766-24 24s10.766 24 24 24v28z"/><circle cx="108" cy="132" r="4"/><circle cx="88" cy="132" r="4"/></svg>