<?xml version="1.0" encoding="utf-8"?>
<!-- Generator: Adobe Illustrator 16.0.0, SVG Export Plug-In . SVG Version: 6.00 Build 0)  -->
<!DOCTYPE svg PUBLIC "-//W3C//DTD SVG 1.1//EN" "http://www.w3.org/Graphics/SVG/1.1/DTD/svg11.dtd">
<svg version="1.1" id="Layer_1" xmlns="http://www.w3.org/2000/svg" xmlns:xlink="http://www.w3.org/1999/xlink" x="0px" y="0px"
	 width="55.279px" height="60.53px" viewBox="0 0 55.279 60.53" style="enable-background:new 0 0 55.279 60.53;"
	 xml:space="preserve">
<style type="text/css">
<![CDATA[
	.st0{fill:#FFFFFF;stroke:#231F20;}
	.st1{fill:#0F016F;}
]]>
</style>
<g>
	<path class="st0" d="M33.332,0.995C35.833,1.474,43.604,2.881,49.264,9.8c5.435,6.643,5.489,14.12,5.516,17.493
		c0.039,5.283-1.45,10.411-3.604,15.195c-2.058,4.569-4.703,8.612-8.701,11.729c-6.834,5.326-14.155,5.643-17.313,5.756
		c-3.692,0.134-10.659,0.387-16.416-3.959c-6.745-5.093-9.505-14.738-7.712-24.637c0.198-1.786,0.604-4.386,1.532-7.404
		C3.8,19.961,7.977,6.374,20.193,1.908C25.956-0.199,31.087,0.566,33.332,0.995z"/>
	<path class="st1" d="M27.64,14.017c0,0-10.521-0.694-10.265,16.249c0.061,4.082,1.313,8.342,5.009,10.544
		c2.675,1.596,5.929,1.846,8.965,1.57c1.5-0.137,3.058-0.238,4.429-0.922c4.229-2.106,7.129-7.817,7.129-12.377
		C42.906,21.166,40.842,13.762,27.64,14.017"/>
</g>
</svg>
