<?xml version="1.0" encoding="utf-8"?>
<!-- Generator: Adobe Illustrator 16.0.0, SVG Export Plug-In . SVG Version: 6.00 Build 0)  -->
<!DOCTYPE svg PUBLIC "-//W3C//DTD SVG 1.1//EN" "http://www.w3.org/Graphics/SVG/1.1/DTD/svg11.dtd">
<svg version="1.1" id="Layer_1" xmlns="http://www.w3.org/2000/svg" xmlns:xlink="http://www.w3.org/1999/xlink" x="0px" y="0px"
	 width="44.521px" height="75.746px" viewBox="0 0 44.521 75.746" style="enable-background:new 0 0 44.521 75.746;"
	 xml:space="preserve">
<style type="text/css">
<![CDATA[
	.st0{fill:#FCEE31;}
	.st1{fill:none;stroke:#231F20;}
]]>
</style>
<path class="st0" d="M44.223,0.47c0,0-47.559,17.234-43.474,48.511c4.085,31.276,30.74,25.915,30.74,25.915
	s13.43-2.172,12.025-16.342S32.383,45.917,30.366,34.045C28.349,22.172,32.421,9.279,44.223,0.47"/>
<path class="st1" d="M44.223,0.47c0,0-47.559,17.234-43.474,48.511c4.085,31.276,30.74,25.915,30.74,25.915
	s13.43-2.172,12.025-16.342S32.383,45.917,30.366,34.045C28.349,22.172,32.421,9.279,44.223,0.47z"/>
</svg>
