<?xml version="1.0" encoding="utf-8"?>
<!-- Generator: Adobe Illustrator 16.0.0, SVG Export Plug-In . SVG Version: 6.00 Build 0)  -->
<!DOCTYPE svg PUBLIC "-//W3C//DTD SVG 1.1//EN" "http://www.w3.org/Graphics/SVG/1.1/DTD/svg11.dtd">
<svg version="1.1" id="Layer_1" xmlns="http://www.w3.org/2000/svg" xmlns:xlink="http://www.w3.org/1999/xlink" x="0px" y="0px"
	 width="124.013px" height="120.469px" viewBox="0 0 124.013 120.469" style="enable-background:new 0 0 124.013 120.469;"
	 xml:space="preserve">
<style type="text/css">
<![CDATA[
	.st0{fill:#E03A3E;}
	.st1{fill:#FFFFFF;}
]]>
</style>
<g>
	<path class="st0" d="M116.896,44.637c0,0-6.329-7.749-17.266-9.133c0,0-2.023-35.476-37.564-35.501V0h-0.033h-0.058h-0.028v0.003
		C26.406,0.021,24.379,35.504,24.379,35.504c-10.936,1.384-17.257,9.133-17.257,9.133C-4.267,56.281,1.42,73.744,1.42,73.744
		c7.174,23.984,24.517,34.6,24.517,34.6c13.942,9.325,27.481,11.166,36.055,11.302l0,0c0.005,0,0.01,0,0.013,0s0.007,0,0.012,0l0,0
		c8.574-0.136,22.123-1.977,36.065-11.302c0,0,17.333-10.615,24.507-34.6C122.589,73.744,128.285,56.281,116.896,44.637z"/>
	<path class="st1" d="M112.392,47.331c0,0-5.482-6.147-17.665-7.394c0,0-0.665-35.206-32.712-35.222V4.713c-0.005,0-0.01,0-0.013,0
		c-0.002,0-0.007,0-0.012,0v0.002C29.935,4.731,29.286,39.938,29.286,39.938c-12.189,1.247-17.672,7.394-17.672,7.394
		C1.259,57.93,6.717,73.02,6.717,73.02c6.621,22.172,22.554,31.581,22.554,31.581c12.852,8.587,25.031,10.319,32.72,10.332l0,0
		c0.005,0,0.01,0,0.012,0c0.003,0,0.008,0,0.013,0l0,0c7.69-0.013,19.873-1.745,32.719-10.332c0,0,15.936-9.409,22.566-31.581
		C117.3,73.02,122.753,57.93,112.392,47.331z"/>
	<path class="st0" d="M112.621,60.847c0,0-2.365-13.081-15.483-13.643h-10.99c1.415-3.241,1.909-5.897,1.871-10.671
		c-0.101-14.115-11.441-25.136-25.885-25.136h-0.251c-14.452,0-25.87,10.887-25.978,25.002c-0.036,4.773,0.606,7.766,2.123,10.804
		H26.375c-13.117,0.862-14.977,13.643-14.977,13.643c-1.117,9.306,2.147,15.36,2.147,15.36s8.263,23.002,34.563,30.162
		c0,0,5.69,1.801,13.897,1.879c8.201-0.078,13.909-1.879,13.909-1.879c26.277-7.16,34.551-30.162,34.551-30.162
		S113.73,70.152,112.621,60.847z M109.513,75.886c0,0-8.11,22.552-33.871,29.569c0,0-5.598,1.768-13.637,1.844
		c-8.046-0.076-13.625-1.844-13.625-1.844c-25.784-7.018-33.885-29.569-33.885-29.569s-3.2-5.937-2.104-15.06
		c0,0,2.316-12.331,15.175-12.683h11.908c-1.772-3.61-2.548-6.25-2.513-10.931c0.106-13.838,10.754-24.865,24.923-24.865h0.247
		c14.16,0,24.816,11.026,24.915,24.865c0.038,4.68-0.739,7.321-2.499,10.931h11.902c12.861,0.353,15.18,12.683,15.18,12.683
		C112.716,69.949,109.513,75.886,109.513,75.886z"/>
	<path class="st0" d="M107.22,55.469c-4.244-5.851-11.418-5.768-11.418-5.768H78.015l-0.188,0.365
		c-3.444,5.105-9.229,8.494-15.819,8.63c-6.585-0.136-12.376-3.525-15.83-8.63l-0.171-0.365H28.203c0,0-7.169-0.083-11.394,5.768
		c0,0-5.729,5.939-0.694,19.47c0,0,7.449,21.353,32.641,28.52c0,0,5.362,1.695,13.106,1.791v0.008c0.05,0,0.098-0.008,0.146-0.008
		c0.045,0,0.096,0.008,0.146,0.008v-0.008c7.736-0.096,13.106-1.791,13.106-1.791c25.188-7.167,32.633-28.52,32.633-28.52
		C112.937,61.408,107.22,55.469,107.22,55.469z"/>
	<path class="st1" d="M40.261,78.868c4.985-1.22,8.603-4.905,8.603-9.261c0-5.362-5.476-9.71-12.228-9.71
		c-6.757,0-12.23,4.348-12.23,9.71c0,4.337,3.61,8.023,8.567,9.254v5.82h-7.998v3.092l23.377,0.004v-3.096h-8.091V78.868z
		 M36.571,76.374c-3.001,0-5.438-3.152-5.438-7.024c0-3.879,2.437-7.028,5.438-7.028c3.003,0,5.436,3.149,5.436,7.028
		C42.006,73.222,39.574,76.374,36.571,76.374z"/>
	<g>
		<path class="st1" d="M50.86,72.449v0.016v0.018c0.015,1.112,0.921,2.009,2.034,2.009c0.005,0,0.01-0.003,0.03-0.003l0.005,0.014
			h8.351v-3.05h-3.618v-8.003h3.62v-3.056H50.845l0.005,12.029C50.85,72.434,50.86,72.449,50.86,72.449z"/>
		<path class="st1" d="M65.191,74.488l0.008,0.014h9.057v-3.02h-4.344v-8.043h4.344v-3.036l-11.116-0.01v12.089l0.041,0.029
			C63.205,73.604,64.091,74.48,65.191,74.488z"/>
		<path class="st1" d="M74.539,76.701H50.56v3.182h8.013v6.334c-0.015,0.092-0.018,0.204-0.018,0.295
			c0,1.563,1.626,2.832,3.635,2.832c2.001,0,3.629-1.258,3.64-2.809h0.011l-0.004-6.667h8.701V76.701z"/>
	</g>
	<g>
		<path class="st1" d="M92.757,59.89V85.99c0,1.552,1.504,2.805,3.497,2.805s3.354-1.253,3.354-2.805V59.89H92.757z"/>
		<path class="st1" d="M76.754,63.525h6.608v16.569c0,0,0,3.172-4.826,4.091h0.016c-1.201,0.182-1.844,0.828-1.844,1.84
			c0,1.018,0.619,1.813,1.646,1.813l0.016,0.016c0,0,11.473,0.471,11.473-7.055V60.348H76.754V63.525z"/>
	</g>
	<g>
		<path class="st0" d="M81.072,37.648c0,0,1.201-7.145-6.208-15.903c0,0-7.638-11.49-17.456-4.275c0,0-4.642-3.539-8.383,0.27
			c0,0-3.139,1.699-1.425,6.933c0,0-9.161,10.566-2.588,19.961c0,0,2.543,2.502,2.764,4.808c0,0,2.352,4.597,9.929,7.072
			c0,0,12.205,4.313,20.504-9.187C78.209,47.327,87.205,44.324,81.072,37.648z M77.855,43.028c-0.432-0.625-1.686-0.508-1.686-0.508
			c-1.676,0.007-1.352,1.369-1.352,1.369c-0.203,1.888-2.809,4.013-2.809,4.013c-0.831,0.214-0.303,1.259-0.303,1.259
			c0.22,1.047-0.619,1.584-0.619,1.584c-3.328,3.582-10.256,3.219-10.256,3.219c-3.882,0.348-9.058-4.028-9.058-4.028
			c-1.267-0.508-0.952-1.563-0.952-1.563c0.093-1.15-0.75-1.57-0.75-1.57c-4.325-3.326-4.156-8.26-4.156-8.26
			c-0.571-5.871,4.32-11.369,4.32-11.369c4.73,0.599,7.129-1.204,7.129-1.204c6.85,4.035,7.658-0.795,7.658-0.795
			c-3.355,0.342-1.9-1.558-1.9-1.558c0.825-1.155,2.834-0.755,2.834-0.755c10.395,1.709,7.088,8.658,7.088,8.658
			c3.164,1.762,1.706,3.245,1.706,3.245c-4.207-1.148-1.034,3.157-1.034,3.157c1.373,0.093,2.023,2.822,2.023,2.822
			c-0.09,2.2,2.107,0.604,2.107,0.604c1.76-2.215,2.092,0.514,2.092,0.514C79.757,44.377,77.855,43.028,77.855,43.028z"/>
		<path class="st0" d="M50.055,30.324c0,0,3.234-1.908,4.514-0.241c0,0,0.946,0.617,0.72-0.952c0,0-1.691-3.454-5.553,0.36
			C49.735,29.491,47.756,31.604,50.055,30.324z"/>
		<path class="st0" d="M68.076,26.156l-2.562,1.118c-1.712,0.851-0.7,2.024-0.7,2.024c1.433,1.435,2.601,0.267,2.601,0.267
			c1.897-2.135,3.976-1.128,3.976-1.128C70.786,24.423,68.076,26.156,68.076,26.156z"/>
		<path class="st0" d="M63.595,38.285c1.471-0.015,2.651-1.203,2.633-2.673c-0.01-1.46-1.203-2.644-2.668-2.633
			c-1.464,0.01-2.646,1.203-2.633,2.663C60.93,37.119,62.136,38.295,63.595,38.285z"/>
		<path class="st0" d="M55.751,34.902c0,0-2.301,0.541,0.327,2.097c0,0,2.432,1.347,2.417-0.124c0,0-1.674,0.217-0.327-1.888
			c0,0,0.088-2.625-1.803-2.822C56.366,32.165,57.957,34.886,55.751,34.902z"/>
		<path class="st0" d="M53.551,34.499c0,0,2.303-0.549-0.219-0.629c0,0-2.415,0.332-3.372-1.551c0,0-2.006-1.873-0.831,0.428
			C49.13,32.746,49.991,35.677,53.551,34.499z"/>
		<path class="st0" d="M68.716,42.466l-1.666,1.061c0,0-1.471,0.644-0.955-1.038c0,0,0.285-4.31-2.432-2.502
			c0,0-1.875,2.009-3.24,2.435c0,0-2.502,1.387-5.14-0.484c0,0-2.754-3.023-4.33-2.801c0,0-2.318-0.717-0.31,0.629
			c0,0,1.689,0.096,2.419,1.144c0,0,1.491,1.661,2.649,2.175c0,0,1.696,1.883,5.467,1.853c0,0,5.146,0.594,8.171-2.054
			C69.35,42.882,70.491,41.3,68.716,42.466z M62.679,43.647l-1.259-0.214c0,0,1.881-0.626,2.518-1.468
			C63.938,41.965,63.528,43.433,62.679,43.647z"/>
		<path class="st0" d="M70.966,40.908c0,0-1.223-0.544-0.287,0.652c0,0,0.529,0.39,0.529,0.964c0,0,0.393-0.315,0.182-1.07
			C71.39,41.454,71.178,41.003,70.966,40.908z"/>
		<path class="st0" d="M58.063,49.21c-0.473-0.317-1.148,0.377-1.148,0.377c-1.42,0.479-2.945-0.448-2.945-0.448
			c-1.048-0.074-1.451-0.741-1.582-1.046c-0.012-0.577-0.322-0.837-0.322-0.837c-0.999-1.143-0.939,0.222-0.939,0.222
			c0.421,0.411,0.421,0.833,0.421,0.833c-0.096,0.576,0.539,1.103,0.539,1.103c3.303,2.53,3.792,1.599,3.792,1.599
			c0.196-0.05,0.987-0.375,0.987-0.375c0.018-0.106,1.047-0.904,1.047-0.904C59.22,49.05,58.063,49.21,58.063,49.21z"/>
	</g>
	<g>
		<path class="st0" d="M111.941,110.117c-2.859,0-5.177,2.317-5.177,5.176c0,2.859,2.317,5.176,5.177,5.176
			c2.857,0,5.176-2.316,5.176-5.176C117.117,112.435,114.798,110.117,111.941,110.117z M111.941,119.557
			c-2.354,0-4.263-1.909-4.263-4.264c0-2.354,1.908-4.262,4.263-4.262c2.354,0,4.263,1.908,4.263,4.262
			C116.204,117.647,114.294,119.557,111.941,119.557z"/>
		<path class="st0" d="M114.339,117.666l-0.049-1.139c-0.033-0.875-0.371-1.033-0.708-1.182c0.379-0.236,0.823-0.578,0.823-1.506
			c0-1.33-0.971-1.689-1.941-1.689h-2.73v6.285h0.797v-2.696h1.934c0.953,0,1.053,0.604,1.053,1.121c0,0.236,0.024,1.19,0.141,1.575
			h0.979v-0.14C114.389,118.146,114.347,118.016,114.339,117.666z M112.382,115.014h-1.852v-2.137h1.991
			c0.395,0,1.061,0.078,1.061,1.051C113.583,114.855,112.966,115.014,112.382,115.014z"/>
	</g>
</g>
</svg>
