<svg id="Layer_1" enable-background="new 0 0 512 512" height="512" viewBox="0 0 512 512" width="512" xmlns="http://www.w3.org/2000/svg"><path d="m237.683 254.619c-4.142 0-7.5 3.358-7.5 7.5 0 5.496-4.471 9.967-9.966 9.967s-9.967-4.471-9.967-9.967c0-4.142-3.358-7.5-7.5-7.5s-7.5 3.358-7.5 7.5c0 5.496-4.471 9.967-9.967 9.967s-9.967-4.471-9.967-9.967c0-4.142-3.358-7.5-7.5-7.5s-7.5 3.358-7.5 7.5c0 13.767 11.2 24.967 24.967 24.967 6.794 0 12.961-2.732 17.467-7.15 4.506 4.418 10.672 7.15 17.467 7.15 13.767 0 24.966-11.2 24.966-24.967 0-4.142-3.358-7.5-7.5-7.5z"/><path d="m119.806 234.365c-4.142 0-7.5 3.358-7.5 7.5v13.105c0 4.142 3.358 7.5 7.5 7.5s7.5-3.358 7.5-7.5v-13.105c0-4.142-3.358-7.5-7.5-7.5z"/><path d="m285.693 234.365c-4.142 0-7.5 3.358-7.5 7.5v13.105c0 4.142 3.358 7.5 7.5 7.5s7.5-3.358 7.5-7.5v-13.105c0-4.142-3.358-7.5-7.5-7.5z"/><path d="m476.956 418.737h-441.912c-19.323 0-35.044-15.721-35.044-35.045v-255.384c0-19.324 15.721-35.044 35.044-35.044h74.269c4.142 0 7.5 3.358 7.5 7.5s-3.358 7.5-7.5 7.5h-74.269c-11.053 0-20.044 8.992-20.044 20.044v255.384c0 11.053 8.992 20.044 20.044 20.044h441.911c11.053 0 20.044-8.992 20.044-20.044v-255.384c0-11.053-8.992-20.044-20.044-20.044h-337.048c-4.142 0-7.5-3.358-7.5-7.5s3.358-7.5 7.5-7.5h337.048c19.324 0 35.044 15.721 35.044 35.044v255.384c.001 19.324-15.72 35.045-35.043 35.045z"/><path d="m311.971 353.428h-218.443c-19.324 0-35.045-15.721-35.045-35.044v-124.768c0-19.324 15.721-35.044 35.045-35.044h218.443c19.324 0 35.044 15.721 35.044 35.044v124.768c.001 19.324-15.72 35.044-35.044 35.044zm-218.443-179.856c-11.053 0-20.045 8.992-20.045 20.044v124.768c0 11.053 8.992 20.044 20.045 20.044h218.443c11.053 0 20.044-8.992 20.044-20.044v-124.768c0-11.053-8.992-20.044-20.044-20.044z"/><path d="m420.536 245.037c-18.186 0-32.981-14.795-32.981-32.981s14.795-32.981 32.981-32.981 32.981 14.795 32.981 32.981-14.795 32.981-32.981 32.981zm0-50.962c-9.915 0-17.981 8.066-17.981 17.981s8.066 17.981 17.981 17.981 17.981-8.066 17.981-17.981-8.066-17.981-17.981-17.981z"/><path d="m420.536 332.925c-18.186 0-32.981-14.795-32.981-32.981s14.795-32.98 32.981-32.98 32.981 14.795 32.981 32.98-14.795 32.981-32.981 32.981zm0-50.962c-9.915 0-17.981 8.066-17.981 17.98s8.066 17.981 17.981 17.981 17.981-8.066 17.981-17.981-8.066-17.98-17.981-17.98z"/></svg>