<?xml version="1.0" encoding="utf-8"?>
<!-- Generator: Adobe Illustrator 16.0.0, SVG Export Plug-In . SVG Version: 6.00 Build 0)  -->
<!DOCTYPE svg PUBLIC "-//W3C//DTD SVG 1.1//EN" "http://www.w3.org/Graphics/SVG/1.1/DTD/svg11.dtd">
<svg version="1.1" id="Capa_1" xmlns="http://www.w3.org/2000/svg" xmlns:xlink="http://www.w3.org/1999/xlink" x="0px" y="0px"
	 width="250px" height="250px" viewBox="0 0 250 250" enable-background="new 0 0 250 250" xml:space="preserve">
<path fill="#F9E12D" d="M96.221,123.939c-15.059,0-24.01-8.993-24.01-24.01V65.146c0-15.059,8.993-24.01,24.01-24.01h57.648
	c15.06,0,24.01,8.993,24.01,24.01v34.572c0,15.059-8.992,24.01-24.01,24.01L96.221,123.939z M149.288,60.055
	c-7.028,0-12.726,5.698-12.726,12.726s5.697,12.726,12.726,12.726s12.726-5.698,12.726-12.726S156.316,60.055,149.288,60.055z
	 M100.718,60.055c-7.029,0-12.726,5.698-12.726,12.726s5.697,12.726,12.726,12.726c7.028,0,12.726-5.698,12.726-12.726
	c0-7.012-5.671-12.703-12.684-12.726H100.718z"/>
<g>
	<circle fill="#FFFFFF" cx="100.76" cy="72.781" r="12.684"/>
	<circle fill="#FFFFFF" cx="100.76" cy="72.781" r="8.442"/>
</g>
<path fill="#FFCC33" d="M66.739,98.063c-10.261-2.972-16.17-13.699-13.199-23.961c1.846-6.371,6.827-11.353,13.199-13.199
	l5.43-1.612v40.426L66.739,98.063z"/>
<g>
	<circle fill="#FFFFFF" cx="149.288" cy="72.781" r="12.684"/>
	<circle fill="#FFFFFF" cx="149.288" cy="72.781" r="8.442"/>
</g>
<g>
	<path fill="#FFCC33" d="M177.879,59.461l5.43,1.442c10.262,2.972,16.171,13.699,13.199,23.961
		c-1.846,6.372-6.826,11.353-13.199,13.199l-5.43,1.654V59.461z"/>
	<circle fill="#FFCC33" cx="125.024" cy="14.369" r="9.884"/>
</g>
<g>
	<circle fill="#FC3406" cx="47.099" cy="136.156" r="12.217"/>
	<path fill="#FC3406" d="M74.12,139.041v55.824c0.006,6.178,1.142,12.303,3.352,18.07l1.06,2.715h93.154l1.061-2.715
		c2.152-5.779,3.23-11.902,3.182-18.07v-55.824H74.12z"/>
	<circle fill="#FC3406" cx="202.949" cy="136.156" r="12.217"/>
</g>
<path fill="#F9E12D" d="M125.024,245.812c-17.432-0.013-33.645-8.943-42.971-23.671l-4.242-6.532h94.341l-4.242,6.532
	C158.601,236.843,142.426,245.77,125.024,245.812L125.024,245.812z"/>
<g>
	<path fill="#58171D" d="M100.76,89.707c9.371,0,16.968-7.597,16.968-16.968s-7.597-16.968-16.968-16.968
		s-16.968,7.597-16.968,16.968S91.389,89.707,100.76,89.707z M100.76,64.254c4.686,0,8.484,3.798,8.484,8.484
		c0,4.686-3.798,8.484-8.484,8.484c-4.686,0-8.484-3.798-8.484-8.484c0.023-4.668,3.815-8.441,8.484-8.441V64.254z"/>
	<path fill="#58171D" d="M149.288,89.707c9.371,0,16.968-7.597,16.968-16.968s-7.597-16.968-16.968-16.968
		s-16.968,7.597-16.968,16.968S139.917,89.707,149.288,89.707z M149.288,64.254c4.687,0,8.484,3.798,8.484,8.484
		c0,4.686-3.798,8.484-8.484,8.484c-4.686,0-8.483-3.798-8.483-8.484c0.023-4.668,3.814-8.441,8.483-8.441V64.254z"/>
	<path fill="#58171D" d="M68.054,102.771c1.272,18.623,15.102,25.452,28.125,25.452h57.69c19.387,0,27.149-12.726,28.125-25.452
		c12.839-2.333,21.355-14.634,19.021-27.473c-1.831-10.071-9.938-17.818-20.082-19.189c-2.8-10.351-10.859-19.174-27.064-19.174
		h-24.604v-9.333c7.441-2.342,11.575-10.274,9.232-17.715c-2.344-7.441-10.275-11.575-17.716-9.232
		C113.341,3,109.208,10.931,111.55,18.372c1.386,4.4,4.832,7.847,9.232,9.231v9.121H96.221c-11.454,0-23.501,5.26-27.149,19.174
		c-12.928,1.774-21.97,13.693-20.195,26.622c1.391,10.137,9.149,18.226,19.219,20.04L68.054,102.771z M192.896,79.483
		c-0.02,6.73-4.479,12.641-10.945,14.507V64.976C188.418,66.842,192.877,72.752,192.896,79.483z M119.382,14.369
		c0-3.116,2.526-5.642,5.642-5.642s5.642,2.526,5.642,5.642s-2.526,5.642-5.642,5.642l0,0
		C121.908,20.011,119.382,17.484,119.382,14.369z M76.411,65.272c0-17.223,12.386-19.768,19.768-19.768h57.69
		c17.223,0,19.768,12.387,19.768,19.768v34.445c0,7.381-2.587,19.768-19.768,19.768H96.221c-7.381,0-19.768-2.588-19.768-19.768
		L76.411,65.272z M67.927,65.272v29.015c-8.012-2.316-12.63-10.688-10.314-18.701C59.052,70.606,62.946,66.712,67.927,65.272z"/>
	<path fill="#58171D" d="M149.288,101.245H100.76c-2.342,0-4.242,1.899-4.242,4.242c0,2.342,1.899,4.242,4.242,4.242h48.528
		c2.343,0,4.242-1.899,4.242-4.242C153.53,103.144,151.631,101.245,149.288,101.245z"/>
	<path fill="#58171D" d="M219.408,136.156c-0.081-9.09-7.516-16.393-16.604-16.312c-7.606,0.068-14.175,5.338-15.89,12.748
		l-11.326,2.206H74.459l-11.326-2.206c-1.94-8.88-10.712-14.506-19.593-12.566c-8.881,1.941-14.507,10.713-12.566,19.593
		c1.319,6.036,5.908,10.825,11.882,12.401v31.688c-7.176,1.914-12.181,8.396-12.217,15.823v7.509c0,2.342,1.899,4.241,4.242,4.241
		s4.242-1.899,4.242-4.241v-7.551c0-4.404,3.57-7.976,7.975-7.976s7.975,3.571,7.975,7.976l0,0v7.551
		c0,2.342,1.899,4.241,4.242,4.241c2.342,0,4.242-1.899,4.242-4.241v-7.551c-0.036-7.428-5.041-13.909-12.217-15.823v-31.688
		c5.389-1.452,9.671-5.543,11.369-10.86l7.084,1.4v52.346c0.008,7.675,1.627,15.262,4.751,22.271v0.381
		c12.524,27.763,45.183,40.115,72.944,27.592c12.252-5.527,22.064-15.339,27.592-27.592l0.211-0.467
		c3.158-6.973,4.82-14.53,4.879-22.186V142.52l7.084-1.4c1.697,5.317,5.98,9.408,11.369,10.86v31.688
		c-7.176,1.914-12.182,8.396-12.217,15.823v7.551c0,2.342,1.898,4.241,4.241,4.241s4.242-1.899,4.242-4.241v-7.551
		c0.005-4.404,3.578-7.973,7.982-7.969c4.398,0.005,7.964,3.57,7.968,7.969v7.551c0,2.342,1.898,4.241,4.242,4.241
		c2.342,0,4.242-1.899,4.242-4.241v-7.551c-0.037-7.428-5.042-13.909-12.218-15.823v-31.688
		C214.316,150.097,219.361,143.606,219.408,136.156L219.408,136.156z M47.099,144.131c-4.404,0-7.975-3.57-7.975-7.975
		s3.57-7.975,7.975-7.975s7.975,3.57,7.975,7.975S51.503,144.131,47.099,144.131L47.099,144.131z M125.024,241.569
		c-15.981-0.001-30.851-8.179-39.408-21.677h78.815C155.875,233.391,141.006,241.568,125.024,241.569z M171.686,194.908
		c-0.02,5.656-1.07,11.262-3.096,16.543H81.374c-2.026-5.281-3.076-10.887-3.097-16.543v-51.625h93.408V194.908z M202.865,144.004
		c-4.404,0-7.976-3.57-7.976-7.975s3.571-7.976,7.976-7.976s7.975,3.571,7.975,7.976c0.07,4.403-3.443,8.031-7.846,8.102
		c-0.016,0-0.029,0-0.045,0L202.865,144.004z"/>
</g>
<path fill="#FFFFFF" d="M111.747,204.537c1.735,1.565,4.41,1.433,5.981-0.297l22.61-25.027c1.569-1.74,1.432-4.422-0.307-5.992
	c-0.777-0.701-1.786-1.09-2.832-1.092h-12.727l15.61-16.035c1.501-1.799,1.259-4.475-0.54-5.975
	c-1.608-1.343-3.955-1.309-5.525,0.078l-22.61,23.246c-1.64,1.673-1.613,4.358,0.06,5.998c0.799,0.783,1.875,1.22,2.994,1.213
	h13.066l-16.078,17.901C109.884,200.291,110.017,202.965,111.747,204.537L111.747,204.537z"/>
</svg>
