<svg id="salt_x26_pepper" enable-background="new 0 0 300 300" height="512" viewBox="0 0 300 300" width="512" xmlns="http://www.w3.org/2000/svg"><path d="m250.092 147.646-3.557-40c-.17-1.907-1.676-3.344-3.535-3.561v-8.085c2.209 0 4-1.791 4-4v-11.236c0-18.067-14.697-32.764-32.764-32.764h-14.473c-18.066 0-32.763 14.697-32.763 32.764v11.236c0 2.209 1.791 4 4 4v8h-1.551c-2.072 0-3.801 1.582-3.984 3.646l-3.557 40c-.01.112.04.216.039.327-.021.116-.087.212-.098.331l-7.283 81.898c-.496 5.584 1.389 11.156 5.172 15.291s9.166 6.507 14.772 6.507h62.98c5.605 0 10.988-2.371 14.771-6.506s5.668-9.707 5.172-15.289zm-75.092-66.882c0-13.655 11.109-24.764 24.764-24.764h14.473c13.654 0 24.763 11.109 24.763 24.764v7.236h-64zm4 15.236h56v8h-56zm-5.891 16h65.781l2.846 32h-71.473zm73.25 128.094c-2.305 2.52-5.455 3.906-8.869 3.906h-62.98c-3.414 0-6.564-1.387-8.869-3.906s-3.408-5.779-3.105-9.182l7.017-78.912h72.895l7.018 78.914c.302 3.4-.802 6.66-3.107 9.18z"/><circle cx="219" cy="68" r="4"/><circle cx="195" cy="68" r="4"/><circle cx="207" cy="68" r="4"/><path d="m134.535 107.646c-.17-1.907-1.676-3.344-3.535-3.561v-8.085c2.209 0 4-1.791 4-4v-11.236c0-18.067-14.697-32.764-32.764-32.764h-14.472c-18.067 0-32.764 14.697-32.764 32.764v11.236c0 2.209 1.791 4 4 4v8h-1.551c-2.072 0-3.801 1.582-3.984 3.646l-3.557 40-7.342 82.557c-.496 5.584 1.389 11.156 5.172 15.291s9.166 6.506 14.772 6.506h62.98c5.605 0 10.988-2.371 14.771-6.506s5.668-9.707 5.172-15.289l-7.342-82.559zm-71.535-26.882c0-13.655 11.109-24.764 24.764-24.764h14.473c13.654 0 24.763 11.109 24.763 24.764v7.236h-64zm4 15.236h56v8h-56zm-5.891 16h65.781l2.846 32h-71.472zm73.25 128.094c-2.305 2.52-5.455 3.906-8.869 3.906h-62.98c-3.414 0-6.564-1.387-8.869-3.906s-3.408-5.779-3.105-9.182l7.017-78.912h72.895l7.018 78.914c.302 3.4-.802 6.66-3.107 9.18z"/><circle cx="107" cy="68" r="4"/><circle cx="83" cy="68" r="4"/><circle cx="95" cy="68" r="4"/></svg>