<?xml version="1.0" encoding="utf-8"?>
<!-- Generator: Adobe Illustrator 16.0.0, SVG Export Plug-In . SVG Version: 6.00 Build 0)  -->
<!DOCTYPE svg PUBLIC "-//W3C//DTD SVG 1.1//EN" "http://www.w3.org/Graphics/SVG/1.1/DTD/svg11.dtd">
<svg version="1.1" id="Layer_6" xmlns="http://www.w3.org/2000/svg" xmlns:xlink="http://www.w3.org/1999/xlink" x="0px" y="0px"
	 width="130px" height="40px" viewBox="0 0 130 40" style="enable-background:new 0 0 130 40;" xml:space="preserve">
<style type="text/css">
<![CDATA[
	.st0{fill:#FEF100;}
	.st1{fill:#FFFFFF;}
	.st2{fill:#004896;}
]]>
</style>
<rect class="st2" width="130" height="40"/>
<g>
	<path class="st1" d="M90.707,15.998c0-2.719-2.126-5.18-6.069-5.18c-2.99,0-4.136,1.507-4.136,1.507s-1.146-1.507-4.136-1.507
		c-3.943,0-6.069,2.46-6.069,5.18c0,3.195,0.001,8.89,0,11.905c0,1.024,0.647,1.517,1.952,1.518c1.353,0.001,1.933-0.291,1.952-1.44
		c0.051-3.043,0.032-7.937,0.006-10.938c-0.025-1.301,0.754-2.358,2.326-2.383c1.714,0.038,2.255,1.21,2.281,2.357
		c0,2.886,0.025,9.226,0.025,10.887c-0.029,1.083,0.599,1.51,1.662,1.508c1.063,0.002,1.691-0.425,1.662-1.508
		c0-1.662,0.025-8.001,0.025-10.887c0.026-1.147,0.567-2.319,2.281-2.357c1.572,0.025,2.352,1.082,2.326,2.383
		c-0.025,3.002-0.044,7.896,0.007,10.938c0.019,1.15,0.599,1.442,1.952,1.44c1.304-0.001,1.952-0.493,1.952-1.518
		C90.706,24.888,90.707,19.193,90.707,15.998z"/>
	<path class="st0" d="M99.868,29.441c-3.928,0.369-7.144-3.198-7.144-7.143c0-3.945,3.198-7.144,7.144-7.144
		c3.945,0,7.016,2.474,7.016,6.418v6.284c0,0.725-0.555,1.295-1.923,1.302c-1.102-0.01-1.924-0.499-1.943-1.205l-0.009-5.763
		c0-1.793-1.347-3.141-3.141-3.141s-3.247,1.454-3.247,3.247c0,1.793,1.457,3.348,3.247,3.247c0.908-0.032,2.052-0.058,2.129,1.797
		C102.075,29.198,101.008,29.333,99.868,29.441z"/>
	<path class="st0" d="M109.3,10.818v16.802c0,0.995,0.843,1.802,1.952,1.802c1.111,0,1.874-0.808,1.874-1.802V10.818H109.3z"/>
	<path class="st0" d="M115.407,10.818v16.802c0,0.995,0.843,1.802,1.953,1.802c1.111,0,1.874-0.808,1.874-1.802V10.818H115.407z"/>
	<path class="st1" d="M27.884,16.87c0-3.661-3.937-6.631-8.794-6.631c-4.855,0-8.792,2.97-8.792,6.631
		c0,2.969,2.591,5.483,6.162,6.326v3.975h-5.756v2.113l16.812,0.003v-2.12h-5.816l-0.001-3.965
		C25.28,22.366,27.884,19.847,27.884,16.87z M19.046,21.489c-2.16,0-3.911-2.145-3.911-4.794c0-2.647,1.751-4.794,3.911-4.794
		c2.158,0,3.909,2.147,3.909,4.794C22.955,19.344,21.204,21.489,19.046,21.489z"/>
	<path class="st1" d="M30.644,19.318c0,0.002,0,0.003,0,0.004v0.014h0.001c0.011,0.761,0.662,1.374,1.463,1.374
		c0.008,0,0.012-0.003,0.019-0.003l0.005,0.006h6.219V18.63h-2.815v-5.967h2.462v-2.087l-7.36,0.002l0.003,8.717
		C30.641,19.303,30.644,19.31,30.644,19.318z"/>
	<path class="st1" d="M40.652,20.71l0.007,0.007h6.513l0.002-2.061h-3.123V12.66l2.918,0v-2.08h-7.79v8.757l0.021,0.018
		C39.222,20.104,39.862,20.704,40.652,20.71z"/>
	<path class="st1" d="M30.329,23.893h5.761v3.969c-0.01,0.068-0.015,0.136-0.015,0.205c0,1.069,1.172,1.934,2.616,1.934
		c1.438,0,2.605-0.858,2.616-1.918h0.008l-0.002-4.193l6.265-0.003v-2.168H30.329V23.893z"/>
	<path class="st1" d="M61.071,10.233v17.835c0,1.056,1.086,1.914,2.516,1.914c1.431,0,2.414-0.857,2.414-1.914V10.233H61.071z"/>
	<path class="st1" d="M49.564,12.722l4.753-0.001v11.317c0,0-0.005,2.168-3.473,2.795l0.006,0.001
		c-0.868,0.124-1.322,0.563-1.322,1.257c0,0.693,0.453,1.234,1.182,1.234l0.016,0.012c-0.004,0,8.246,0.322,8.246-4.821V10.545
		l-9.407,0V12.722z"/>
</g>
</svg>
